mtllib Cube.mtl
o empty_3
usemtl material16
v 100 99.99998370793219 -100.00001629206781
v -100 99.99998370793219 -100.00001629206781
v -100 100.00001629206781 99.99998370793219
v 100 99.99998370793219 -100.00001629206781
v -100 100.00001629206781 99.99998370793219
v 100 100.00001629206781 99.99998370793219
v 100 -99.99998370793219 100.00001629206781
v 100 100.00001629206781 99.99998370793219
v -100 100.00001629206781 99.99998370793219
v 100 -99.99998370793219 100.00001629206781
v -100 100.00001629206781 99.99998370793219
v -100 -99.99998370793219 100.00001629206781
v -100 -99.99998370793219 100.00001629206781
v -100 100.00001629206781 99.99998370793219
v -100 99.99998370793219 -100.00001629206781
v -100 -99.99998370793219 100.00001629206781
v -100 99.99998370793219 -100.00001629206781
v -100 -100.00001629206781 -99.99998370793219
v -100 -100.00001629206781 -99.99998370793219
v 100 -100.00001629206781 -99.99998370793219
v 100 -99.99998370793219 100.00001629206781
v -100 -100.00001629206781 -99.99998370793219
v 100 -99.99998370793219 100.00001629206781
v -100 -99.99998370793219 100.00001629206781
v 100 -100.00001629206781 -99.99998370793219
v 100 99.99998370793219 -100.00001629206781
v 100 100.00001629206781 99.99998370793219
v 100 -100.00001629206781 -99.99998370793219
v 100 100.00001629206781 99.99998370793219
v 100 -99.99998370793219 100.00001629206781
v -100 -100.00001629206781 -99.99998370793219
v -100 99.99998370793219 -100.00001629206781
v 100 99.99998370793219 -100.00001629206781
v -100 -100.00001629206781 -99.99998370793219
v 100 99.99998370793219 -100.00001629206781
v 100 -100.00001629206781 -99.99998370793219
vn 0 0.9999999999999868 -1.629206780595638e-7
vn 0 0.9999999999999868 -1.629206780595638e-7
vn 0 0.9999999999999868 -1.629206780595638e-7
vn 0 0.9999999999999868 -1.629206780595638e-7
vn 0 0.9999999999999868 -1.629206780595638e-7
vn 0 0.9999999999999868 -1.629206780595638e-7
vn 0 1.629206780595638e-7 0.9999999999999868
vn 0 1.629206780595638e-7 0.9999999999999868
vn 0 1.629206780595638e-7 0.9999999999999868
vn 0 1.629206780595638e-7 0.9999999999999868
vn 0 1.629206780595638e-7 0.9999999999999868
vn 0 1.629206780595638e-7 0.9999999999999868
vn -1 0 0
vn -1 0 0
vn -1 0 0
vn -1 0 0
vn -1 0 0
vn -1 0 0
vn 0 -0.9999999999999868 1.629206780595638e-7
vn 0 -0.9999999999999868 1.629206780595638e-7
vn 0 -0.9999999999999868 1.629206780595638e-7
vn 0 -0.9999999999999868 1.629206780595638e-7
vn 0 -0.9999999999999868 1.629206780595638e-7
vn 0 -0.9999999999999868 1.629206780595638e-7
vn 1 0 0
vn 1 0 0
vn 1 0 0
vn 1 0 0
vn 1 0 0
vn 1 0 0
vn 0 -1.629206780595638e-7 -0.9999999999999868
vn 0 -1.629206780595638e-7 -0.9999999999999868
vn 0 -1.629206780595638e-7 -0.9999999999999868
vn 0 -1.629206780595638e-7 -0.9999999999999868
vn 0 -1.629206780595638e-7 -0.9999999999999868
vn 0 -1.629206780595638e-7 -0.9999999999999868
f 1//1 2//2 3//3
f 4//4 5//5 6//6
f 7//7 8//8 9//9
f 10//10 11//11 12//12
f 13//13 14//14 15//15
f 16//16 17//17 18//18
f 19//19 20//20 21//21
f 22//22 23//23 24//24
f 25//25 26//26 27//27
f 28//28 29//29 30//30
f 31//31 32//32 33//33
f 34//34 35//35 36//36
